<svg width="299" height="43" viewBox="0 0 299 43" fill="none" xmlns="http://www.w3.org/2000/svg">
<path d="M41.5182 24.473L39.2016 26.2747L22.4785 39.607L20.8134 40.9042C20.6686 41.0484 20.5238 41.0484 20.3066 40.9763C18.9311 40.3277 17.4833 39.7512 16.1078 39.1026C14.1531 38.2378 3.51113 34.202 2.78719 33.8417C2.35282 33.6255 2.13564 33.1931 2.06324 32.6886C1.77366 31.6076 1.91845 30.3825 2.13564 29.3015C2.13564 29.2294 2.13564 29.2294 2.20803 29.1574C2.06324 29.0853 1.84606 28.9412 1.70127 28.8691C1.91845 29.0132 2.20803 29.0853 2.42521 29.2294C2.85958 29.5177 3.29395 29.6618 3.80071 29.9501C4.52465 30.3104 16.2526 34.9948 17.2661 35.4272C18.1348 35.8596 19.1483 36.1478 20.0171 36.5082C20.6686 36.7964 21.3202 36.6523 21.8269 36.2199C22.4061 35.7154 22.9852 35.211 23.5644 34.7065L42.6041 19.5725C42.9661 19.2842 43.0385 18.7077 42.7489 18.3474C42.4594 17.987 41.8802 17.915 41.5182 18.2032L39.2016 19.9328L22.4785 33.2652L20.8134 34.5624C20.6686 34.7065 20.5238 34.7065 20.3066 34.6344C18.9311 33.9858 17.4833 33.4093 16.1078 32.7607C14.1531 31.8959 3.51113 27.8602 2.78719 27.4998C2.35282 27.2836 2.13564 26.8512 2.06324 26.3468C1.77366 25.2658 1.91845 24.0406 2.13564 22.9596C2.20803 22.9596 2.20803 22.9596 2.28043 23.0317C2.71479 23.32 3.14916 23.4641 3.65592 23.7524C4.37986 24.1127 16.1078 28.797 17.1213 29.2294C17.99 29.6618 19.0035 29.9501 19.8723 30.3104C20.5238 30.5987 21.1754 30.4546 21.6821 30.0222C22.2613 29.5177 22.8405 29.0132 23.4196 28.5088L42.4593 13.3748C42.8213 13.0865 42.8937 12.51 42.6041 12.1496C42.3146 11.7893 41.7354 11.7172 41.3734 12.0055L39.0568 13.8072L22.2613 26.9954L20.5962 28.2926C20.4514 28.4367 20.3066 28.4367 20.0895 28.3646C18.714 27.716 17.2661 27.1395 15.8906 26.4909C14.0083 25.6261 3.36634 21.5904 2.6424 21.23C2.20803 21.0138 1.99085 20.5814 1.91845 20.077C1.62888 18.996 1.77366 17.7708 1.91845 16.6898C1.99085 16.1854 2.49761 15.8971 3.00437 16.1133C3.00437 16.1133 17.4109 21.7345 17.5557 21.8066C17.8452 21.8786 19.2207 22.3831 19.3655 22.4552C19.4379 22.4552 19.4379 22.5272 19.5103 22.5272C19.6551 22.5993 19.8723 22.5993 20.0171 22.5993C20.2342 22.5993 20.379 22.4552 20.5962 22.311C20.741 22.239 20.8134 22.0948 20.9582 22.0228C22.6957 20.7256 24.4331 19.4284 26.0982 18.1312C26.605 17.7708 27.1841 17.3384 27.6909 16.9781C27.7633 16.9781 27.7633 16.906 27.8357 16.906C29.356 15.753 30.8038 14.672 32.3241 13.5189C32.3965 13.4468 32.4689 13.3748 32.5413 13.3027C34.8579 11.5731 37.1022 9.84351 39.4188 8.18598C40.2151 7.60945 40.2151 6.67258 39.2016 6.31225C38.4053 6.02398 37.6089 5.66365 36.8126 5.37538C35.6543 4.94298 34.4236 4.43851 33.2653 4.00611C31.3106 3.28545 29.4283 2.49272 27.4737 1.77205C26.0258 1.26758 24.5779 0.763116 23.13 0.25865C21.8269 -0.17375 20.5962 -0.101684 19.4379 0.763116C19.3655 0.763116 19.3655 0.835183 19.2931 0.835183C17.4833 2.06032 15.6734 3.28545 13.7911 4.51058C11.7641 5.87985 9.66466 7.24911 7.63761 8.69044C7.27564 8.90664 6.91367 9.19491 6.62409 9.41111C4.88663 10.6362 3.22155 11.8614 1.55648 13.0865L1.48409 13.1586C0.977325 13.4468 0.687747 13.9513 0.470564 14.5999C0.470564 14.672 0.39817 14.8161 0.39817 14.8882C0.253381 15.3206 0.180986 15.825 0.108592 16.2574C-0.0361972 17.1222 -0.0361972 17.987 0.108592 18.9239C0.180986 19.3563 0.253381 19.7887 0.325775 20.149C0.398169 20.5094 0.470564 20.9418 0.542958 21.3021C0.470564 21.7345 0.325775 22.0948 0.325775 22.5272C0.180986 23.392 0.180986 24.2568 0.325775 25.1937C0.398169 25.6261 0.470564 26.0585 0.542958 26.4188C0.615353 26.7071 0.687747 26.9954 0.687747 27.3557C0.687747 27.4278 0.615353 27.4998 0.615353 27.5719C0.470564 28.0043 0.398169 28.5088 0.325775 28.9412C0.180986 29.806 0.180986 30.6708 0.325775 31.6076C0.398169 32.04 0.470564 32.4724 0.542958 32.8328C0.615353 33.2652 0.687747 33.7696 0.832536 34.202C0.977325 34.5624 1.19451 34.8506 1.48409 35.0668C1.84606 35.3551 2.20803 35.3551 2.49761 35.5713C2.93198 35.8596 3.36634 36.0037 3.8731 36.292C4.59705 36.6523 16.3249 41.3366 17.3385 41.769C18.2072 42.2014 19.2207 42.4897 20.0895 42.85C20.741 43.1383 21.3926 42.9942 21.8993 42.5618C22.4785 42.0573 23.0576 41.5528 23.6368 41.0484L42.6765 25.9144C43.0385 25.6261 43.1109 25.0496 42.8213 24.6892C42.4593 24.1848 41.8802 24.1127 41.5182 24.473Z" fill="white"/>
<path d="M60.2557 24.452L58.5358 22.5657L67.052 14.9649C67.3294 14.706 67.6345 14.5858 67.9674 14.6043C68.3188 14.6228 68.6147 14.7707 68.8551 15.0481C69.114 15.3255 69.2342 15.6307 69.2157 15.9636C69.1972 16.2964 69.0493 16.5923 68.7719 16.8512L60.2557 24.452ZM58.9519 30C58.5451 30 58.2122 29.8798 57.9533 29.6394C57.7129 29.3805 57.5927 29.0476 57.5927 28.6407V9.69432C57.5927 9.28747 57.7129 8.96383 57.9533 8.72342C58.2122 8.46451 58.5451 8.33506 58.9519 8.33506C59.3588 8.33506 59.6824 8.46451 59.9228 8.72342C60.1817 8.96383 60.3112 9.28747 60.3112 9.69432V28.6407C60.3112 29.0476 60.1817 29.3805 59.9228 29.6394C59.6824 29.8798 59.3588 30 58.9519 30ZM68.8551 29.8613C68.5592 30.1017 68.2263 30.2034 67.8565 30.1664C67.5051 30.1479 67.2092 29.9908 66.9688 29.6949L61.3376 22.7321L63.2794 20.9013L69.0493 28.0027C69.2897 28.2986 69.3914 28.6222 69.3544 28.9736C69.3359 29.3065 69.1695 29.6024 68.8551 29.8613ZM75.0782 30C74.6713 30 74.3292 29.8705 74.0518 29.6116C73.7929 29.3342 73.6634 28.9921 73.6634 28.5853V16.241C73.6634 15.8156 73.7929 15.4735 74.0518 15.2146C74.3292 14.9557 74.6713 14.8262 75.0782 14.8262C75.5035 14.8262 75.8457 14.9557 76.1046 15.2146C76.3635 15.4735 76.4929 15.8156 76.4929 16.241V28.5853C76.4929 28.9921 76.3635 29.3342 76.1046 29.6116C75.8457 29.8705 75.5035 30 75.0782 30ZM75.0782 12.3574C74.5789 12.3574 74.1443 12.1817 73.7744 11.8303C73.423 11.4604 73.2473 11.0258 73.2473 10.5265C73.2473 10.0272 73.423 9.60185 73.7744 9.25048C74.1443 8.88061 74.5789 8.69568 75.0782 8.69568C75.5775 8.69568 76.0029 8.88061 76.3542 9.25048C76.7241 9.60185 76.909 10.0272 76.909 10.5265C76.909 11.0258 76.7241 11.4604 76.3542 11.8303C76.0029 12.1817 75.5775 12.3574 75.0782 12.3574ZM87.2771 30C86.3524 30 85.5202 29.7688 84.7805 29.3065C84.0407 28.8257 83.4582 28.1784 83.0329 27.3647C82.6075 26.551 82.3948 25.6356 82.3948 24.6184V11.3865C82.3948 10.9796 82.5243 10.6467 82.7832 10.3878C83.0421 10.1289 83.375 9.99946 83.7818 9.99946C84.1887 9.99946 84.5216 10.1289 84.7805 10.3878C85.0394 10.6467 85.1688 10.9796 85.1688 11.3865V24.6184C85.1688 25.3582 85.3723 25.9777 85.7791 26.477C86.186 26.9763 86.6853 27.226 87.2771 27.226H88.2202C88.5531 27.226 88.8305 27.3555 89.0524 27.6144C89.2928 27.8733 89.4131 28.2061 89.4131 28.613C89.4131 29.0199 89.2559 29.3527 88.9415 29.6116C88.6456 29.8705 88.2572 30 87.7764 30H87.2771ZM81.1188 17.7667C80.7304 17.7667 80.416 17.6557 80.1756 17.4338C79.9352 17.2119 79.815 16.9345 79.815 16.6016C79.815 16.2317 79.9352 15.9358 80.1756 15.7139C80.416 15.492 80.7304 15.381 81.1188 15.381H87.5267C87.9151 15.381 88.2295 15.492 88.4699 15.7139C88.7103 15.9358 88.8305 16.2317 88.8305 16.6016C88.8305 16.9345 88.7103 17.2119 88.4699 17.4338C88.2295 17.6557 87.9151 17.7667 87.5267 17.7667H81.1188ZM99.2155 30.111C97.8654 30.111 96.6541 29.7781 95.5815 29.1123C94.5089 28.4281 93.6582 27.5126 93.0294 26.3661C92.4192 25.201 92.114 23.888 92.114 22.427C92.114 20.966 92.4469 19.653 93.1127 18.4879C93.7969 17.3228 94.7123 16.4074 95.8589 15.7416C97.024 15.0574 98.3278 14.7153 99.7703 14.7153C101.213 14.7153 102.507 15.0574 103.654 15.7416C104.8 16.4074 105.707 17.3228 106.372 18.4879C107.057 19.653 107.399 20.966 107.399 22.427H106.317C106.317 23.888 106.003 25.201 105.374 26.3661C104.763 27.5126 103.922 28.4281 102.849 29.1123C101.777 29.7781 100.565 30.111 99.2155 30.111ZM99.7703 27.6144C100.713 27.6144 101.555 27.3924 102.295 26.9486C103.034 26.4863 103.617 25.8667 104.042 25.09C104.468 24.2948 104.68 23.4071 104.68 22.427C104.68 21.4283 104.468 20.5407 104.042 19.7639C103.617 18.9687 103.034 18.3492 102.295 17.9054C101.555 17.443 100.713 17.2119 99.7703 17.2119C98.8456 17.2119 98.0041 17.443 97.2459 17.9054C96.5062 18.3492 95.9144 18.9687 95.4706 19.7639C95.0452 20.5407 94.8325 21.4283 94.8325 22.427C94.8325 23.4071 95.0452 24.2948 95.4706 25.09C95.9144 25.8667 96.5062 26.4863 97.2459 26.9486C98.0041 27.3924 98.8456 27.6144 99.7703 27.6144ZM105.984 30.0277C105.577 30.0277 105.235 29.8983 104.958 29.6394C104.699 29.362 104.569 29.0199 104.569 28.613V24.3688L105.096 21.4283L107.399 22.427V28.613C107.399 29.0199 107.26 29.362 106.983 29.6394C106.724 29.8983 106.391 30.0277 105.984 30.0277ZM113.025 36.4912C112.618 36.4912 112.276 36.3525 111.998 36.0751C111.739 35.8162 111.61 35.4833 111.61 35.0764V22.427C111.628 20.966 111.97 19.653 112.636 18.4879C113.302 17.3228 114.208 16.4074 115.355 15.7416C116.501 15.0574 117.796 14.7153 119.238 14.7153C120.699 14.7153 122.003 15.0574 123.15 15.7416C124.296 16.4074 125.202 17.3228 125.868 18.4879C126.552 19.653 126.895 20.966 126.895 22.427C126.895 23.888 126.58 25.201 125.951 26.3661C125.341 27.5126 124.5 28.4281 123.427 29.1123C122.354 29.7781 121.143 30.111 119.793 30.111C118.702 30.111 117.694 29.889 116.769 29.4452C115.863 28.9829 115.087 28.3633 114.439 27.5866V35.0764C114.439 35.4833 114.31 35.8162 114.051 36.0751C113.792 36.3525 113.45 36.4912 113.025 36.4912ZM119.238 27.6144C120.181 27.6144 121.023 27.3924 121.763 26.9486C122.502 26.4863 123.085 25.8667 123.51 25.09C123.954 24.2948 124.176 23.4071 124.176 22.427C124.176 21.4283 123.954 20.5407 123.51 19.7639C123.085 18.9687 122.502 18.3492 121.763 17.9054C121.023 17.443 120.181 17.2119 119.238 17.2119C118.314 17.2119 117.472 17.443 116.714 17.9054C115.974 18.3492 115.392 18.9687 114.966 19.7639C114.541 20.5407 114.328 21.4283 114.328 22.427C114.328 23.4071 114.541 24.2948 114.966 25.09C115.392 25.8667 115.974 26.4863 116.714 26.9486C117.472 27.3924 118.314 27.6144 119.238 27.6144ZM132.529 24.4797C132.122 24.4797 131.78 24.3503 131.503 24.0914C131.244 23.814 131.115 23.4719 131.115 23.065V9.7498C131.115 9.32445 131.244 8.98233 131.503 8.72342C131.78 8.46451 132.122 8.33506 132.529 8.33506C132.955 8.33506 133.297 8.46451 133.556 8.72342C133.815 8.98233 133.944 9.32445 133.944 9.7498V23.065C133.944 23.4719 133.815 23.814 133.556 24.0914C133.297 24.3503 132.955 24.4797 132.529 24.4797ZM143.93 30.0277C143.524 30.0277 143.181 29.8983 142.904 29.6394C142.645 29.362 142.516 29.0199 142.516 28.613V21.789C142.516 20.7348 142.321 19.8749 141.933 19.2091C141.545 18.5434 141.018 18.0533 140.352 17.7389C139.705 17.406 138.956 17.2396 138.105 17.2396C137.328 17.2396 136.626 17.3968 135.997 17.7112C135.368 18.0256 134.869 18.4509 134.499 18.9872C134.129 19.505 133.944 20.1061 133.944 20.7903H132.196C132.196 19.6252 132.474 18.5896 133.029 17.6834C133.602 16.7588 134.379 16.0283 135.359 15.492C136.339 14.9557 137.439 14.6875 138.66 14.6875C139.936 14.6875 141.073 14.9649 142.072 15.5197C143.089 16.056 143.884 16.8512 144.457 17.9054C145.049 18.9595 145.345 20.254 145.345 21.789V28.613C145.345 29.0199 145.206 29.362 144.929 29.6394C144.67 29.8983 144.337 30.0277 143.93 30.0277ZM132.529 30.0277C132.122 30.0277 131.78 29.8983 131.503 29.6394C131.244 29.362 131.115 29.0199 131.115 28.613V16.241C131.115 15.8156 131.244 15.4735 131.503 15.2146C131.78 14.9557 132.122 14.8262 132.529 14.8262C132.955 14.8262 133.297 14.9557 133.556 15.2146C133.815 15.4735 133.944 15.8156 133.944 16.241V28.613C133.944 29.0199 133.815 29.362 133.556 29.6394C133.297 29.8983 132.955 30.0277 132.529 30.0277ZM156.375 30.111C155.025 30.111 153.814 29.7781 152.741 29.1123C151.668 28.4281 150.818 27.5126 150.189 26.3661C149.579 25.201 149.274 23.888 149.274 22.427C149.274 20.966 149.606 19.653 150.272 18.4879C150.956 17.3228 151.872 16.4074 153.018 15.7416C154.184 15.0574 155.487 14.7153 156.93 14.7153C158.372 14.7153 159.667 15.0574 160.813 15.7416C161.96 16.4074 162.866 17.3228 163.532 18.4879C164.216 19.653 164.558 20.966 164.558 22.427H163.476C163.476 23.888 163.162 25.201 162.533 26.3661C161.923 27.5126 161.082 28.4281 160.009 29.1123C158.936 29.7781 157.725 30.111 156.375 30.111ZM156.93 27.6144C157.873 27.6144 158.714 27.3924 159.454 26.9486C160.194 26.4863 160.776 25.8667 161.202 25.09C161.627 24.2948 161.84 23.4071 161.84 22.427C161.84 21.4283 161.627 20.5407 161.202 19.7639C160.776 18.9687 160.194 18.3492 159.454 17.9054C158.714 17.443 157.873 17.2119 156.93 17.2119C156.005 17.2119 155.164 17.443 154.405 17.9054C153.666 18.3492 153.074 18.9687 152.63 19.7639C152.205 20.5407 151.992 21.4283 151.992 22.427C151.992 23.4071 152.205 24.2948 152.63 25.09C153.074 25.8667 153.666 26.4863 154.405 26.9486C155.164 27.3924 156.005 27.6144 156.93 27.6144ZM163.144 30.0277C162.737 30.0277 162.395 29.8983 162.117 29.6394C161.858 29.362 161.729 29.0199 161.729 28.613V24.3688L162.256 21.4283L164.558 22.427V28.613C164.558 29.0199 164.42 29.362 164.142 29.6394C163.883 29.8983 163.55 30.0277 163.144 30.0277ZM181.585 30.0277C181.178 30.0277 180.836 29.8983 180.559 29.6394C180.3 29.362 180.171 29.0199 180.171 28.613V21.789C180.171 20.7348 179.976 19.8749 179.588 19.2091C179.2 18.5434 178.673 18.0533 178.007 17.7389C177.36 17.406 176.611 17.2396 175.76 17.2396C174.983 17.2396 174.28 17.3968 173.652 17.7112C173.023 18.0256 172.524 18.4509 172.154 18.9872C171.784 19.505 171.599 20.1061 171.599 20.7903H169.851C169.851 19.6252 170.129 18.5896 170.683 17.6834C171.257 16.7588 172.033 16.0283 173.014 15.492C173.994 14.9557 175.094 14.6875 176.315 14.6875C177.591 14.6875 178.728 14.9649 179.727 15.5197C180.744 16.056 181.539 16.8512 182.112 17.9054C182.704 18.9595 183 20.254 183 21.789V28.613C183 29.0199 182.861 29.362 182.584 29.6394C182.325 29.8983 181.992 30.0277 181.585 30.0277ZM170.184 30.0277C169.777 30.0277 169.435 29.8983 169.158 29.6394C168.899 29.362 168.769 29.0199 168.769 28.613V16.241C168.769 15.8156 168.899 15.4735 169.158 15.2146C169.435 14.9557 169.777 14.8262 170.184 14.8262C170.609 14.8262 170.952 14.9557 171.211 15.2146C171.469 15.4735 171.599 15.8156 171.599 16.241V28.613C171.599 29.0199 171.469 29.362 171.211 29.6394C170.952 29.8983 170.609 30.0277 170.184 30.0277ZM194.003 30.111C192.653 30.111 191.441 29.7781 190.369 29.1123C189.296 28.4281 188.446 27.5126 187.817 26.3661C187.207 25.201 186.901 23.888 186.901 22.427C186.901 20.966 187.234 19.653 187.9 18.4879C188.584 17.3228 189.5 16.4074 190.646 15.7416C191.811 15.0574 193.115 14.7153 194.558 14.7153C196 14.7153 197.295 15.0574 198.441 15.7416C199.588 16.4074 200.494 17.3228 201.16 18.4879C201.844 19.653 202.186 20.966 202.186 22.427H201.104C201.104 23.888 200.79 25.201 200.161 26.3661C199.551 27.5126 198.709 28.4281 197.637 29.1123C196.564 29.7781 195.353 30.111 194.003 30.111ZM194.558 27.6144C195.501 27.6144 196.342 27.3924 197.082 26.9486C197.822 26.4863 198.404 25.8667 198.83 25.09C199.255 24.2948 199.468 23.4071 199.468 22.427C199.468 21.4283 199.255 20.5407 198.83 19.7639C198.404 18.9687 197.822 18.3492 197.082 17.9054C196.342 17.443 195.501 17.2119 194.558 17.2119C193.633 17.2119 192.792 17.443 192.033 17.9054C191.294 18.3492 190.702 18.9687 190.258 19.7639C189.833 20.5407 189.62 21.4283 189.62 22.427C189.62 23.4071 189.833 24.2948 190.258 25.09C190.702 25.8667 191.294 26.4863 192.033 26.9486C192.792 27.3924 193.633 27.6144 194.558 27.6144ZM200.771 30.0277C200.365 30.0277 200.022 29.8983 199.745 29.6394C199.486 29.362 199.357 29.0199 199.357 28.613V24.3688L199.884 21.4283L202.186 22.427V28.613C202.186 29.0199 202.047 29.362 201.77 29.6394C201.511 29.8983 201.178 30.0277 200.771 30.0277ZM226.314 30.0277C225.908 30.0277 225.566 29.8983 225.288 29.6394C225.029 29.362 224.9 29.0199 224.9 28.613V20.6794C224.9 19.5143 224.613 18.6543 224.04 18.0995C223.467 17.5262 222.718 17.2396 221.793 17.2396C220.831 17.2396 220.036 17.5725 219.407 18.2382C218.797 18.904 218.492 19.7547 218.492 20.7903H216.189C216.189 19.5883 216.448 18.5341 216.966 17.628C217.484 16.7033 218.205 15.9821 219.13 15.4642C220.073 14.9464 221.146 14.6875 222.348 14.6875C223.402 14.6875 224.336 14.9187 225.149 15.381C225.963 15.8434 226.592 16.5276 227.036 17.4338C227.498 18.3215 227.729 19.4033 227.729 20.6794V28.613C227.729 29.0199 227.6 29.362 227.341 29.6394C227.082 29.8983 226.74 30.0277 226.314 30.0277ZM207.812 30.0277C207.405 30.0277 207.063 29.8983 206.786 29.6394C206.527 29.362 206.397 29.0199 206.397 28.613V16.2687C206.397 15.8434 206.527 15.5012 206.786 15.2423C207.063 14.9834 207.405 14.854 207.812 14.854C208.237 14.854 208.579 14.9834 208.838 15.2423C209.097 15.5012 209.227 15.8434 209.227 16.2687V28.613C209.227 29.0199 209.097 29.362 208.838 29.6394C208.579 29.8983 208.237 30.0277 207.812 30.0277ZM217.077 30.0277C216.67 30.0277 216.328 29.8983 216.051 29.6394C215.792 29.362 215.662 29.0199 215.662 28.613V20.6794C215.662 19.5143 215.376 18.6543 214.802 18.0995C214.229 17.5262 213.48 17.2396 212.555 17.2396C211.594 17.2396 210.799 17.5725 210.17 18.2382C209.541 18.904 209.227 19.7547 209.227 20.7903H207.479C207.479 19.5883 207.719 18.5341 208.2 17.628C208.681 16.7033 209.347 15.9821 210.198 15.4642C211.048 14.9464 212.019 14.6875 213.11 14.6875C214.164 14.6875 215.098 14.9187 215.912 15.381C216.726 15.8434 217.354 16.5276 217.798 17.4338C218.261 18.3215 218.492 19.4033 218.492 20.6794V28.613C218.492 29.0199 218.362 29.362 218.103 29.6394C217.845 29.8983 217.502 30.0277 217.077 30.0277ZM233.235 30.4438C232.717 30.4438 232.264 30.2589 231.876 29.889C231.506 29.5007 231.321 29.0476 231.321 28.5298C231.321 27.9935 231.506 27.5404 231.876 27.1705C232.264 26.7822 232.717 26.588 233.235 26.588C233.771 26.588 234.224 26.7822 234.594 27.1705C234.964 27.5404 235.149 27.9935 235.149 28.5298C235.149 29.0476 234.964 29.5007 234.594 29.889C234.224 30.2589 233.771 30.4438 233.235 30.4438ZM245.92 30.111C244.44 30.111 243.118 29.7781 241.953 29.1123C240.807 28.4281 239.9 27.5126 239.235 26.3661C238.587 25.201 238.264 23.888 238.264 22.427C238.264 20.929 238.587 19.5975 239.235 18.4324C239.882 17.2673 240.77 16.3612 241.898 15.7139C243.026 15.0481 244.32 14.7153 245.781 14.7153C246.872 14.7153 247.871 14.9279 248.777 15.3533C249.683 15.7601 250.497 16.3797 251.218 17.2119C251.477 17.5078 251.57 17.8129 251.496 18.1273C251.422 18.4417 251.218 18.7191 250.885 18.9595C250.627 19.1444 250.34 19.2091 250.025 19.1537C249.711 19.0797 249.424 18.9132 249.166 18.6543C248.259 17.6927 247.131 17.2119 245.781 17.2119C244.838 17.2119 244.006 17.4338 243.285 17.8776C242.563 18.303 241.999 18.904 241.593 19.6807C241.186 20.4574 240.982 21.3729 240.982 22.427C240.982 23.4256 241.186 24.3133 241.593 25.09C242.018 25.8667 242.6 26.4863 243.34 26.9486C244.08 27.3924 244.94 27.6144 245.92 27.6144C246.567 27.6144 247.131 27.5404 247.612 27.3924C248.111 27.226 248.565 26.9763 248.971 26.6435C249.267 26.403 249.572 26.2736 249.887 26.2551C250.201 26.2181 250.479 26.3013 250.719 26.5048C251.033 26.7637 251.209 27.0596 251.246 27.3924C251.283 27.7068 251.172 27.9935 250.913 28.2524C249.582 29.4914 247.917 30.111 245.92 30.111ZM262.58 30.111C261.082 30.111 259.76 29.7873 258.613 29.1401C257.467 28.4743 256.561 27.5681 255.895 26.4215C255.248 25.2565 254.924 23.9249 254.924 22.427C254.924 20.9105 255.248 19.579 255.895 18.4324C256.561 17.2673 257.467 16.3612 258.613 15.7139C259.76 15.0481 261.082 14.7153 262.58 14.7153C264.06 14.7153 265.373 15.0481 266.519 15.7139C267.666 16.3612 268.563 17.2673 269.21 18.4324C269.876 19.579 270.209 20.9105 270.209 22.427C270.209 23.9249 269.885 25.2565 269.238 26.4215C268.591 27.5681 267.694 28.4743 266.547 29.1401C265.4 29.7873 264.078 30.111 262.58 30.111ZM262.58 27.6144C263.542 27.6144 264.393 27.3924 265.132 26.9486C265.872 26.5048 266.445 25.8945 266.852 25.1178C267.278 24.341 267.49 23.4441 267.49 22.427C267.49 21.4098 267.278 20.5129 266.852 19.7362C266.445 18.941 265.872 18.3215 265.132 17.8776C264.393 17.4338 263.542 17.2119 262.58 17.2119C261.619 17.2119 260.768 17.4338 260.028 17.8776C259.288 18.3215 258.706 18.941 258.281 19.7362C257.855 20.5129 257.643 21.4098 257.643 22.427C257.643 23.4441 257.855 24.341 258.281 25.1178C258.706 25.8945 259.288 26.5048 260.028 26.9486C260.768 27.3924 261.619 27.6144 262.58 27.6144ZM294.337 30.0277C293.93 30.0277 293.588 29.8983 293.311 29.6394C293.052 29.362 292.922 29.0199 292.922 28.613V20.6794C292.922 19.5143 292.636 18.6543 292.062 18.0995C291.489 17.5262 290.74 17.2396 289.815 17.2396C288.854 17.2396 288.059 17.5725 287.43 18.2382C286.82 18.904 286.514 19.7547 286.514 20.7903H284.212C284.212 19.5883 284.471 18.5341 284.989 17.628C285.507 16.7033 286.228 15.9821 287.152 15.4642C288.096 14.9464 289.168 14.6875 290.37 14.6875C291.424 14.6875 292.358 14.9187 293.172 15.381C293.986 15.8434 294.614 16.5276 295.058 17.4338C295.521 18.3215 295.752 19.4033 295.752 20.6794V28.613C295.752 29.0199 295.622 29.362 295.363 29.6394C295.105 29.8983 294.762 30.0277 294.337 30.0277ZM275.835 30.0277C275.428 30.0277 275.086 29.8983 274.808 29.6394C274.549 29.362 274.42 29.0199 274.42 28.613V16.2687C274.42 15.8434 274.549 15.5012 274.808 15.2423C275.086 14.9834 275.428 14.854 275.835 14.854C276.26 14.854 276.602 14.9834 276.861 15.2423C277.12 15.5012 277.249 15.8434 277.249 16.2687V28.613C277.249 29.0199 277.12 29.362 276.861 29.6394C276.602 29.8983 276.26 30.0277 275.835 30.0277ZM285.1 30.0277C284.693 30.0277 284.351 29.8983 284.073 29.6394C283.814 29.362 283.685 29.0199 283.685 28.613V20.6794C283.685 19.5143 283.398 18.6543 282.825 18.0995C282.252 17.5262 281.503 17.2396 280.578 17.2396C279.616 17.2396 278.821 17.5725 278.192 18.2382C277.564 18.904 277.249 19.7547 277.249 20.7903H275.502C275.502 19.5883 275.742 18.5341 276.223 17.628C276.704 16.7033 277.369 15.9821 278.22 15.4642C279.071 14.9464 280.042 14.6875 281.133 14.6875C282.187 14.6875 283.121 14.9187 283.935 15.381C284.748 15.8434 285.377 16.5276 285.821 17.4338C286.283 18.3215 286.514 19.4033 286.514 20.6794V28.613C286.514 29.0199 286.385 29.362 286.126 29.6394C285.867 29.8983 285.525 30.0277 285.1 30.0277Z" fill="white"/>
</svg>
