<svg width="43" height="43" viewBox="0 0 43 43" fill="none" xmlns="http://www.w3.org/2000/svg">
<path d="M41.5182 24.473L39.2016 26.2747L22.4785 39.607L20.8134 40.9042C20.6686 41.0484 20.5238 41.0484 20.3066 40.9763C18.9311 40.3277 17.4833 39.7512 16.1078 39.1026C14.1531 38.2378 3.51113 34.202 2.78719 33.8417C2.35282 33.6255 2.13564 33.1931 2.06324 32.6886C1.77366 31.6076 1.91845 30.3825 2.13564 29.3015C2.13564 29.2294 2.13564 29.2294 2.20803 29.1574C2.06324 29.0853 1.84606 28.9412 1.70127 28.8691C1.91845 29.0132 2.20803 29.0853 2.42521 29.2294C2.85958 29.5177 3.29395 29.6618 3.80071 29.9501C4.52465 30.3104 16.2526 34.9948 17.2661 35.4272C18.1348 35.8596 19.1483 36.1478 20.0171 36.5082C20.6686 36.7964 21.3202 36.6523 21.8269 36.2199C22.4061 35.7154 22.9852 35.211 23.5644 34.7065L42.6041 19.5725C42.9661 19.2842 43.0385 18.7077 42.7489 18.3474C42.4594 17.987 41.8802 17.915 41.5182 18.2032L39.2016 19.9328L22.4785 33.2652L20.8134 34.5624C20.6686 34.7065 20.5238 34.7065 20.3066 34.6344C18.9311 33.9858 17.4833 33.4093 16.1078 32.7607C14.1531 31.8959 3.51113 27.8602 2.78719 27.4998C2.35282 27.2836 2.13564 26.8512 2.06324 26.3468C1.77366 25.2658 1.91845 24.0406 2.13564 22.9596C2.20803 22.9596 2.20803 22.9596 2.28043 23.0317C2.71479 23.32 3.14916 23.4641 3.65592 23.7524C4.37986 24.1127 16.1078 28.797 17.1213 29.2294C17.99 29.6618 19.0035 29.9501 19.8723 30.3104C20.5238 30.5987 21.1754 30.4546 21.6821 30.0222C22.2613 29.5177 22.8405 29.0132 23.4196 28.5088L42.4593 13.3748C42.8213 13.0865 42.8937 12.51 42.6041 12.1496C42.3146 11.7893 41.7354 11.7172 41.3734 12.0055L39.0568 13.8072L22.2613 26.9954L20.5962 28.2926C20.4514 28.4367 20.3066 28.4367 20.0895 28.3646C18.714 27.716 17.2661 27.1395 15.8906 26.4909C14.0083 25.6261 3.36634 21.5904 2.6424 21.23C2.20803 21.0138 1.99085 20.5814 1.91845 20.077C1.62888 18.996 1.77366 17.7708 1.91845 16.6898C1.99085 16.1854 2.49761 15.8971 3.00437 16.1133C3.00437 16.1133 17.4109 21.7345 17.5557 21.8066C17.8452 21.8786 19.2207 22.3831 19.3655 22.4552C19.4379 22.4552 19.4379 22.5272 19.5103 22.5272C19.6551 22.5993 19.8723 22.5993 20.0171 22.5993C20.2342 22.5993 20.379 22.4552 20.5962 22.311C20.741 22.239 20.8134 22.0948 20.9582 22.0228C22.6957 20.7256 24.4331 19.4284 26.0982 18.1312C26.605 17.7708 27.1841 17.3384 27.6909 16.9781C27.7633 16.9781 27.7633 16.906 27.8357 16.906C29.356 15.753 30.8038 14.672 32.3241 13.5189C32.3965 13.4468 32.4689 13.3748 32.5413 13.3027C34.8579 11.5731 37.1022 9.84351 39.4188 8.18598C40.2151 7.60945 40.2151 6.67258 39.2016 6.31225C38.4053 6.02398 37.6089 5.66365 36.8126 5.37538C35.6543 4.94298 34.4236 4.43851 33.2653 4.00611C31.3106 3.28545 29.4283 2.49272 27.4737 1.77205C26.0258 1.26758 24.5779 0.763116 23.13 0.25865C21.8269 -0.17375 20.5962 -0.101684 19.4379 0.763116C19.3655 0.763116 19.3655 0.835183 19.2931 0.835183C17.4833 2.06032 15.6734 3.28545 13.7911 4.51058C11.7641 5.87985 9.66466 7.24911 7.63761 8.69044C7.27564 8.90664 6.91367 9.19491 6.62409 9.41111C4.88663 10.6362 3.22155 11.8614 1.55648 13.0865L1.48409 13.1586C0.977325 13.4468 0.687747 13.9513 0.470564 14.5999C0.470564 14.672 0.39817 14.8161 0.39817 14.8882C0.253381 15.3206 0.180986 15.825 0.108592 16.2574C-0.0361972 17.1222 -0.0361972 17.987 0.108592 18.9239C0.180986 19.3563 0.253381 19.7887 0.325775 20.149C0.398169 20.5094 0.470564 20.9418 0.542958 21.3021C0.470564 21.7345 0.325775 22.0948 0.325775 22.5272C0.180986 23.392 0.180986 24.2568 0.325775 25.1937C0.398169 25.6261 0.470564 26.0585 0.542958 26.4188C0.615353 26.7071 0.687747 26.9954 0.687747 27.3557C0.687747 27.4278 0.615353 27.4998 0.615353 27.5719C0.470564 28.0043 0.398169 28.5088 0.325775 28.9412C0.180986 29.806 0.180986 30.6708 0.325775 31.6076C0.398169 32.04 0.470564 32.4724 0.542958 32.8328C0.615353 33.2652 0.687747 33.7696 0.832536 34.202C0.977325 34.5624 1.19451 34.8506 1.48409 35.0668C1.84606 35.3551 2.20803 35.3551 2.49761 35.5713C2.93198 35.8596 3.36634 36.0037 3.8731 36.292C4.59705 36.6523 16.3249 41.3366 17.3385 41.769C18.2072 42.2014 19.2207 42.4897 20.0895 42.85C20.741 43.1383 21.3926 42.9942 21.8993 42.5618C22.4785 42.0573 23.0576 41.5528 23.6368 41.0484L42.6765 25.9144C43.0385 25.6261 43.1109 25.0496 42.8213 24.6892C42.4593 24.1848 41.8802 24.1127 41.5182 24.473Z" fill="#111214"/>
</svg>
